<?xml version="1.0" standalone="no"?>
<!DOCTYPE svg PUBLIC "-//W3C//DTD SVG 20010904//EN"
 "http://www.w3.org/TR/2001/REC-SVG-20010904/DTD/svg10.dtd">
<svg version="1.0" xmlns="http://www.w3.org/2000/svg"
 width="333.000000pt" height="480.000000pt" viewBox="0 0 333.000000 480.000000"
 preserveAspectRatio="xMidYMid meet">
<metadata>
Created by potrace 1.16, written by Peter Selinger 2001-2019
</metadata>
<g transform="translate(0.000000,480.000000) scale(0.100000,-0.100000)"
fill="#000000" stroke="none">
<path d="M0 2400 l0 -2400 1665 0 1665 0 0 2400 0 2400 -1665 0 -1665 0 0
-2400z m1850 2215 c285 -69 475 -268 536 -562 21 -100 14 -245 -24 -478 -25
-151 -31 -175 -60 -217 -60 -88 -195 -170 -432 -263 -63 -25 -121 -48 -128
-51 -8 -4 -10 -1 -6 10 4 9 79 52 168 95 174 84 256 134 324 200 49 48 49 68
1 113 -35 33 -36 38 -8 38 27 0 76 -35 84 -60 4 -11 9 -20 13 -20 11 0 63 350
69 460 12 211 -74 424 -227 563 -78 70 -219 142 -320 163 -92 19 -300 14 -373
-10 -66 -21 -158 -71 -206 -112 -52 -45 -131 -153 -175 -239 -112 -222 -86
-538 77 -904 l51 -115 14 35 c18 43 19 44 36 30 9 -8 12 -24 9 -50 -8 -56 19
-93 108 -151 64 -42 77 -55 82 -82 3 -18 8 -42 12 -53 3 -11 -2 -4 -12 15 -12
23 -38 45 -78 68 -94 52 -93 51 -201 237 -34 58 -103 227 -127 315 -46 161
-64 411 -38 510 48 184 194 387 328 457 147 77 334 99 503 58z m276 -233 c57
-42 111 -105 119 -141 14 -67 -31 -70 -76 -5 -17 25 -51 68 -75 95 -24 27 -44
56 -44 64 0 24 34 17 76 -13z m-784 -17 c0 -5 -5 -11 -11 -13 -6 -2 -11 4 -11
13 0 9 5 15 11 13 6 -2 11 -8 11 -13z m120 -40 c0 -5 -5 -11 -11 -13 -6 -2
-11 4 -11 13 0 9 5 15 11 13 6 -2 11 -8 11 -13z m329 -241 c141 -42 234 -122
298 -257 21 -45 42 -100 46 -122 3 -22 9 -51 12 -64 5 -21 3 -23 -21 -19 -14
3 -29 1 -32 -3 -3 -5 4 -9 16 -9 33 0 80 -53 80 -90 0 -40 -47 -90 -85 -90
-23 0 -25 -2 -15 -14 27 -34 -90 -171 -182 -213 -79 -37 -227 -68 -314 -67
-92 2 -142 20 -226 82 -71 53 -102 87 -132 148 -25 50 -59 164 -52 172 2 2 13
-1 24 -7 12 -6 39 -11 62 -11 106 0 180 100 152 205 -7 25 -7 44 -1 50 5 5 9
16 9 25 -1 13 -3 12 -14 -2 -15 -20 -49 -23 -92 -8 -16 6 -58 16 -94 23 l-64
14 44 32 c25 18 64 57 87 86 45 57 64 70 178 122 62 28 80 32 166 32 61 1 115
-5 150 -15z m-501 -299 c25 -7 60 -16 77 -20 28 -5 34 -13 43 -46 11 -41 1
-99 -23 -130 -22 -29 -81 -59 -115 -59 -57 0 -121 46 -137 98 -18 62 3 161 37
175 16 7 58 0 118 -18z m1011 -531 c-12 -67 -35 -124 -49 -124 -5 0 -28 6 -53
14 -24 8 -56 17 -72 20 -26 6 -23 10 63 67 49 33 95 69 101 80 18 35 22 13 10
-57z m-168 -149 c-3 -33 -30 -66 -49 -58 -16 6 -11 33 13 71 18 30 39 23 36
-13z m-113 21 c0 -2 -7 -20 -15 -39 -8 -20 -15 -49 -15 -65 0 -24 -5 -31 -27
-36 -37 -8 -51 -20 -101 -88 -24 -32 -53 -65 -66 -73 -28 -18 -240 -40 -302
-30 -53 8 -77 34 -148 164 -31 57 -56 105 -56 107 0 1 30 -14 67 -34 51 -28
73 -48 93 -82 l26 -45 80 0 c105 1 158 11 150 31 -7 17 15 64 38 84 9 7 71 34
139 60 122 48 137 53 137 46z m174 -32 c17 -7 21 -29 7 -38 -16 -10 -41 5 -41
25 0 20 8 23 34 13z m-499 -97 c-13 -32 -19 -36 -62 -42 -27 -4 -58 -8 -70
-10 -38 -6 -61 6 -72 36 -8 22 -7 31 2 35 23 9 212 30 215 24 1 -4 -4 -23 -13
-43z m778 -96 c42 -31 77 -59 77 -63 0 -7 -74 -68 -84 -68 -3 0 -43 24 -88 53
-46 29 -100 61 -121 72 l-38 20 60 3 c50 2 64 7 78 26 21 27 14 30 116 -43z
m-1124 4 c30 -58 26 -67 -89 -187 l-85 -89 -53 31 -54 32 69 72 c37 41 91 99
120 130 28 31 55 56 60 56 4 0 19 -20 32 -45z m874 -19 c26 -10 47 -22 47 -26
0 -4 -19 -20 -41 -35 -44 -29 -58 -24 -59 20 0 11 -3 31 -7 44 -3 13 -2 22 3
20 5 -2 30 -12 57 -23z m376 -80 c9 -11 4 -20 -28 -45 -41 -32 -65 -39 -77
-20 -7 12 62 78 82 79 6 0 17 -6 23 -14z m80 0 c43 -22 111 -106 87 -106 -4 0
-108 83 -140 112 -16 14 23 9 53 -6z m21 -83 c70 -59 90 -85 70 -91 -6 -2 -17
-17 -26 -34 l-16 -30 -26 24 c-15 14 -54 45 -87 69 -33 24 -62 45 -65 47 -4 3
70 71 78 72 2 0 35 -26 72 -57z m-1635 1 c-27 -24 -63 -54 -78 -66 l-29 -21
15 29 c25 48 93 103 127 103 8 0 -7 -20 -35 -45z m825 -41 c0 -54 -12 -94 -24
-82 -9 8 6 139 15 139 5 0 9 -26 9 -57z m-200 38 c0 -19 -103 -30 -115 -12 -5
10 24 17 83 20 17 0 32 -3 32 -8z m600 -4 c0 -17 -25 -39 -67 -61 -51 -25 -43
5 10 42 48 35 57 37 57 19z m-1185 -68 c50 -28 63 -49 31 -49 -21 0 -107 60
-101 70 9 14 9 14 70 -21z m665 20 c-19 -5 -91 -11 -160 -13 -69 -3 -114 -3
-100 0 36 7 208 21 255 22 l40 0 -35 -9z m-700 -54 l51 -34 -101 -76 c-56 -41
-111 -75 -123 -75 -12 0 -39 -3 -59 -6 -33 -6 -38 -4 -38 12 0 33 34 72 126
144 49 38 90 70 90 70 1 0 25 -16 54 -35z m675 5 c-78 -15 -225 -23 -225 -11
0 9 69 16 210 18 53 1 53 1 15 -7z m1142 -46 c48 -52 53 -70 22 -79 -12 -4
-39 -25 -60 -46 l-39 -39 -30 47 c-43 68 -38 132 13 153 38 15 50 11 94 -36z
m-2067 -48 c0 -3 -9 -21 -21 -40 -11 -19 -19 -45 -17 -58 3 -21 7 -23 66 -21
34 1 62 -2 62 -7 0 -17 -68 -73 -120 -100 -30 -15 -94 -42 -142 -59 l-88 -30
0 23 c0 13 -9 35 -21 50 -29 36 -13 56 40 49 32 -4 47 0 85 26 59 41 76 67 76
117 0 22 3 44 7 47 7 8 73 10 73 3z m-90 -53 c0 -61 -105 -148 -156 -129 -13
5 3 25 67 86 46 43 85 79 87 80 1 0 2 -17 2 -37z m2272 -79 c57 -114 57 -130
4 -149 -24 -8 -32 -3 -102 65 -50 51 -74 81 -72 95 3 17 92 95 110 95 4 0 31
-48 60 -106z m-2659 -79 c35 -4 37 -5 37 -15 0 -5 -9 -10 -19 -10 -11 0 -23 5
-26 10 -3 6 -15 10 -26 10 -10 0 -19 4 -19 10 0 5 7 7 16 3 9 -3 25 -7 37 -8z
m184 -52 c20 -27 15 -52 -12 -65 -20 -9 -28 -8 -43 5 -10 10 -26 17 -36 17 -9
0 -27 5 -39 11 -16 9 -22 9 -25 0 -2 -6 -10 -11 -18 -11 -27 0 -14 26 26 51
33 22 130 17 147 -8z m-232 7 c3 -5 -3 -10 -15 -10 -12 0 -18 5 -15 10 3 6 10
10 15 10 5 0 12 -4 15 -10z m-55 -9 c0 -5 -7 -12 -16 -15 -14 -5 -15 -4 -4 9
14 17 20 19 20 6z m90 -1 c0 -5 -4 -10 -10 -10 -5 0 -10 5 -10 10 0 6 5 10 10
10 6 0 10 -4 10 -10z m2752 -25 c14 -30 10 -34 -36 -45 -26 -6 -39 -4 -47 6
-13 16 -11 20 28 45 37 24 42 23 55 -6z m-2795 -1 c-3 -3 -12 -4 -19 -1 -8 3
-5 6 6 6 11 1 17 -2 13 -5z m-47 -8 c0 -2 -7 -7 -16 -10 -8 -3 -12 -2 -9 4 6
10 25 14 25 6z m40 -36 c-14 -10 -26 -17 -28 -15 -7 7 23 34 38 34 10 1 6 -6
-10 -19z m178 -8 c3 -9 -2 -13 -14 -10 -9 1 -19 9 -22 16 -3 9 2 13 14 10 9
-1 19 -9 22 -16z m2685 -8 l32 -17 -59 -28 -58 -28 -28 29 c-27 29 -27 30 -7
30 12 1 36 7 52 15 17 7 31 14 33 14 2 1 17 -6 35 -15z m-2716 -41 c-16 -16
-17 -16 -17 3 0 26 11 37 24 24 7 -7 5 -16 -7 -27z m2813 -29 c0 -22 -22 -12
-31 14 -8 20 -6 21 11 12 11 -6 20 -18 20 -26z m-1457 19 c3 -5 8 -43 12 -85
l7 -78 -25 0 c-23 0 -27 6 -37 58 -6 31 -14 67 -17 79 -4 16 1 22 19 26 12 2
26 5 30 6 4 0 9 -2 11 -6z m1235 -21 c4 -23 -4 -27 -27 -13 -17 11 -7 45 12
39 6 -3 13 -14 15 -26z m182 -20 c0 -15 -2 -15 -10 -2 -13 20 -13 33 0 25 6
-3 10 -14 10 -23z m-30 -8 c0 -8 -4 -14 -10 -14 -5 0 -10 9 -10 21 0 11 5 17
10 14 6 -3 10 -13 10 -21z m-162 -6 c7 -7 12 -18 12 -25 0 -11 -4 -11 -20 -1
-11 7 -20 18 -20 25 0 16 12 17 28 1z m122 -3 c0 -8 -7 -15 -15 -15 -8 0 -15
7 -15 15 0 8 7 15 15 15 8 0 15 -7 15 -15z m40 -37 c0 -16 -3 -19 -11 -11 -6
6 -8 16 -5 22 11 17 16 13 16 -11z m27 0 c-3 -8 -6 -5 -6 6 -1 11 2 17 5 13 3
-3 4 -12 1 -19z m-67 3 c0 -6 -4 -13 -10 -16 -5 -3 -10 1 -10 9 0 9 5 16 10
16 6 0 10 -4 10 -9z m-1182 -164 l3 -68 -143 3 -143 3 -7 55 c-4 30 -5 61 -3
68 4 10 38 12 147 10 l143 -3 3 -68z m-300 -68 c7 -11 24 -19 38 -19 25 0 35
-16 50 -76 6 -24 4 -25 -21 -22 -16 2 -30 -2 -32 -9 -3 -8 4 -13 16 -13 12 0
21 -3 21 -7 0 -5 -34 -48 -75 -98 -67 -80 -172 -222 -200 -270 -9 -15 -15 -16
-52 -5 -23 7 -51 22 -62 34 -20 21 -20 21 18 101 42 88 129 241 198 348 38 59
46 67 66 61 12 -4 28 -15 35 -25z m432 6 c0 -19 57 -65 81 -65 10 0 19 -1 19
-2 0 -2 9 -120 19 -263 11 -142 18 -262 15 -266 -8 -13 -136 -31 -147 -20 -6
6 -25 110 -43 232 -32 209 -33 223 -16 235 14 11 6 13 -61 14 -77 0 -78 1 -71
23 21 69 33 87 59 87 18 0 29 6 32 19 4 16 15 21 52 23 54 4 61 2 61 -17z
m-710 -638 c0 -5 -14 -7 -31 -3 -17 3 -38 6 -45 6 -8 0 -14 6 -14 14 0 11 9
11 45 3 25 -6 45 -15 45 -20z m103 -82 c23 -48 22 -60 -9 -84 -39 -30 -78 -27
-103 8 l-21 29 53 40 c28 22 55 41 58 41 3 1 13 -15 22 -34z m737 -4 c0 -10
-48 -21 -91 -21 -48 0 -33 19 19 23 26 2 53 4 60 5 6 1 12 -2 12 -7z m-610
-133 c13 -24 33 -71 46 -106 13 -35 44 -93 69 -130 25 -37 45 -72 45 -79 0 -8
-23 -11 -77 -10 -43 1 -85 -2 -94 -6 -18 -9 -61 41 -159 185 l-50 73 29 6 c42
9 118 56 137 84 9 14 20 25 24 25 4 0 18 -19 30 -42z m641 -35 c-4 -40 -9 -75
-13 -78 -11 -11 -108 -7 -123 5 -16 13 -22 120 -7 120 4 0 16 -7 26 -15 30
-22 52 -18 87 16 17 17 32 29 34 27 1 -2 0 -35 -4 -75z m-122 -168 c50 -16 93
-16 133 0 19 8 19 7 -2 -202 -6 -51 -10 -97 -10 -103 0 -7 -9 -5 -22 4 -35 25
-72 19 -121 -18 -25 -19 -48 -32 -51 -28 -4 3 -6 89 -6 190 1 136 5 182 13
178 7 -3 36 -12 66 -21z m-369 -139 c43 -1 51 -29 20 -69 l-21 -27 -41 27
c-23 14 -64 28 -92 32 l-51 6 30 23 c26 21 36 23 75 16 25 -4 61 -7 80 -8z
m-70 -76 c22 -11 40 -25 40 -30 0 -14 -7 -13 -35 6 -13 9 -46 22 -72 29 l-48
13 38 1 c21 1 56 -8 77 -19z m-32 -30 c23 -10 42 -24 42 -29 0 -26 -181 -132
-188 -111 -7 18 29 121 48 140 25 25 44 25 98 0z m570 -74 c12 -12 42 -106 42
-134 0 -9 -8 -7 -26 7 -32 26 -111 28 -154 6 -29 -15 -30 -15 -30 9 0 43 17
72 62 105 44 33 77 35 106 7z m7 -142 c13 -8 26 -22 29 -30 5 -12 -2 -11 -28
5 -40 25 -105 27 -146 6 -19 -10 -30 -11 -30 -5 0 34 132 52 175 24z m2 -50
c42 -32 42 -58 1 -85 -44 -27 -118 -22 -153 11 -32 30 -32 53 1 79 39 31 107
28 151 -5z"/>
<path d="M1666 3880 c-38 -16 -79 -38 -90 -48 -12 -11 -32 -25 -45 -32 -21
-11 -26 -10 -38 6 -16 22 -28 12 -14 -13 5 -10 13 -39 16 -65 19 -151 197
-217 317 -118 40 33 63 90 53 135 -3 14 -7 36 -10 50 -3 13 -19 40 -36 60 -17
19 -28 39 -24 45 13 20 -61 9 -129 -20z m128 -15 c81 -75 73 -211 -16 -265
-48 -29 -144 -28 -189 3 -49 33 -79 82 -79 131 1 38 4 43 48 71 72 46 154 84
183 85 14 0 38 -11 53 -25z"/>
<path d="M1606 3732 c-3 -6 -1 -14 5 -17 15 -10 25 3 12 16 -7 7 -13 7 -17 1z"/>
<path d="M1401 3534 c-26 -34 -26 -49 0 -67 25 -18 51 -12 80 19 28 30 18 31
-21 3 -51 -39 -83 1 -38 48 12 13 17 23 10 23 -6 0 -20 -12 -31 -26z"/>
<path d="M1476 3355 c-42 -16 -66 -33 -66 -46 0 -4 19 3 43 16 49 29 113 33
158 9 39 -20 48 -12 12 11 -36 24 -99 28 -147 10z"/>
<path d="M1212 3671 c2 -7 7 -12 11 -12 12 1 9 15 -3 20 -7 2 -11 -2 -8 -8z"/>
</g>
</svg>
