<svg id="Layer_1" data-name="Layer 1" xmlns="http://www.w3.org/2000/svg" width="64" height="64" viewBox="0 0 64 64"><defs><style>.cls-1{fill:#1d1d1b;}</style></defs><title>morty</title><g id="morty"><path class="cls-1" d="M52.16,33.58s1.75-3.44-1-15.62S33.29,4.21,24.16,7.21,13.48,16,13.48,16a10.74,10.74,0,0,0-2.94,6.25c-.69,4.31,1,10.44,1,10.44s-3.63,1.63-1.44,5.94,6.06,3.25,6.06,3.25a13.21,13.21,0,0,0,4.56,5.31A10.48,10.48,0,0,0,18,49.83c-1.37,1.88-2.62,4.06-2.56,5.13s3.31.94,4.81,1.06S25.6,57.64,27,58a23,23,0,0,0,7.25-.37c2.38-.5,2.44-.19,7.5.13s6.69-.62,7.25-.81,1.75-2,.94-4.12-6.12-6.44-6.12-6.44A7.92,7.92,0,0,0,46,44.58a34.94,34.94,0,0,0,2.69-3.37s4.69.06,5.69-3.25A3.45,3.45,0,0,0,52.16,33.58ZM11.91,37.52c-.81-2.12,1.06-2.75,1.38-3,0,0,.81,2.31,1.25,3.38a7,7,0,0,1,.5,1.94A3.85,3.85,0,0,1,11.91,37.52ZM13.6,22.08c-.25.19-.25,1-.25,1s1.44,1.5,1.38,1.69a17,17,0,0,0-1.12,4.06,8.08,8.08,0,0,1-.69,2.75s-2.31-6.75-.69-9.94S14,18.14,14,18.14s2.81-6.44,8.69-8.37S37,6.14,44.1,10.52s7.13,18.88,7.06,19.69-.25.88-.25.88a19.8,19.8,0,0,0-3.19-10.69c-3.44-5.25-7.56-8.81-15.44-8.69S17.6,18,17.1,19.27s-.94,2.13-.94,2.13-.87-1.31-1.06-1.31-.69.25-.56.63,1.06,1.38,1.06,1.63a4.71,4.71,0,0,1-.25.94S13.85,21.89,13.6,22.08ZM48.29,52.89c.69,1.56.56,2.63.25,2.69a3.8,3.8,0,0,1-.87,0s-3.19-5.19-3.81-5.25-.81.13-.69.44,3.31,5,3.13,5.06-.75.56-1.12.31S42.29,52,42,52s-1,.19-.94.38,2.88,3.94,2.63,4.06a6.64,6.64,0,0,1-1.44.13s-2.5-3.69-2.87-3.69-.62.63-.62.63,2.19,3.25,1.94,3.25a20.88,20.88,0,0,0-5.19-.62c-2.5.13-4.44,1.13-6.62.88S24,55,21.85,54.89s-4.19-.12-4.25-.37S18.23,51,22.23,48c.54-.4,3.81,2.94,11.19,2.19s8.44-2.69,8.75-2.69S47.6,51.33,48.29,52.89Zm-3-10.12c-4.5,4.13-8.56,6.63-16.19,5.44s-10.69-5.44-13-10.69S15,13.77,33.16,13.64c5.13,0,11.06,2.81,14.19,10.19S49.79,38.64,45.29,42.77ZM53,37.89c-.37,1.69-3.25,1.88-3.25,1.88a7.29,7.29,0,0,0,.75-1.94c.38-1.37.69-2.62.69-2.62A2.25,2.25,0,0,1,53,37.89Zm-31.25-15c.44.13,5.19-1.06,5.69-1.06s.25-.5-.06-.87-6.58.88-6.12.88C21.29,21.83,21.29,22.77,21.73,22.89Zm18.13-.75a46,46,0,0,0,5.38.88c.63-.06.25-.19.19-.62s-5.31-1.19-5.56-1.19C39.85,21.21,39.41,22,39.85,22.14Zm-8.12,7.25c.19-6.12-4.63-6.5-8.06-5.69-6.31,1.5-6.19,7.94-2.75,10.38S31.54,35.52,31.73,29.39Zm-10.17,4c-2.91-2.07-3-7.52,2.33-8.79,2.91-.69,7-.37,6.83,4.82S24.47,35.42,21.56,33.36Zm16.85-9.46c-4.81,2.56-4.19,7.31-1.06,9.88s9.38,1.38,9.19-4.19S41.38,22.31,38.41,23.89ZM37.93,33c-2.59-2.12-3.1-6.05.88-8.17,2.46-1.31,6.57.1,6.72,4.71S40.52,35.1,37.93,33ZM24.54,28.14c-.56.44-1.37,2,.19,2.56a1.7,1.7,0,0,0,2.38-1.81C27,27.71,25.45,27.44,24.54,28.14Zm15.56,0c-.56.44-1.37,2,.19,2.56a1.7,1.7,0,0,0,2.38-1.81C42.6,27.71,41,27.44,40.1,28.14Zm-8.94,8.94a13.59,13.59,0,0,0,4.13,2.31c1.5.38,2.63-.19,2.31-2.06A2.75,2.75,0,0,0,35.48,35a.39.39,0,0,0-.44.5c.06.31,0,0,.63.5s1,1.94.5,2.25-4.1-1.82-4.37-1.87S31,36.83,31.16,37.08Zm6.25,5.38a18.35,18.35,0,0,1-5,.75c-4.31.19-6-2-6.44-1.94s-.87.5-.75.75,1.35,1.92,5.81,2.31c4.25.38,7.06-.81,7.13-1A.94.94,0,0,0,37.41,42.46Z"/></g></svg>