<svg id="Layer_1" data-name="Layer 1" xmlns="http://www.w3.org/2000/svg" width="64" height="64" viewBox="0 0 64 64"><defs><style>.cls-1{fill:#1d1d1b;}</style></defs><title>rick</title><g id="rick"><path class="cls-1" d="M19.7,7.47A41.22,41.22,0,0,0,20.53,12c.08.12.83-.5.87-.63s-.31-1.95-.31-2.07a16.88,16.88,0,0,1,2.16.44c.12,0,.12-.71.12-.87A20.21,20.21,0,0,0,19.7,7.47Zm19.51-.11A15.82,15.82,0,0,0,36,9.5c.17.16.29.54.54.62s.29-.29,1.24-.92a20,20,0,0,1,3-1.31c.12-.08-.13-.75-.34-1S40.41,6.93,39.21,7.36ZM57.69,38.43c-3.08-.64-3.21-1.55-3.09-1.72s1.53-.39,4.74-4.65a15.39,15.39,0,0,0,2.57-10.52c-.17-.5-.92-.41-2.32.18a28,28,0,0,1-4.06,1.36c-.17,0,.29-.62,2.16-5s1.47-7.82,1.06-7.86-4.72,2.07-7.45,3a22.21,22.21,0,0,1-6.59,1.09c-.42-.12,2-11.23,1.86-11.52S44.49,2.29,39.64,4a37.87,37.87,0,0,0-9.26,5.14s-1-1.78-6-3.61a27.76,27.76,0,0,0-8.49-2c-.21,0,.14,1.62.49,4.06s.76,6.93.76,7.05-1.2.18-4,.16-8.89-.3-9.3-.13-.4,2.41,1.5,6.46a28,28,0,0,0,4.5,6.77s-1.77,1.34-3.8,3A23.14,23.14,0,0,0,1.7,36.26c-.12.33,1.3,1.24,4,1.55a22.26,22.26,0,0,1,5.53,1.53s-.74.88-2.18,2.3S4,49.2,3.68,49.82s.51,1.45,1.22,1.44,9.38-.36,9.88-.41-1.53,6.57-1.61,6.78,1.33.53,4,.22A9.41,9.41,0,0,0,22,55.32a8.55,8.55,0,0,0,2.26,1.81,12.77,12.77,0,0,0,4.54,1.21s.14,2.41.23,2.7,1.21.28,1.66.28a10,10,0,0,1,1.58,0,2.12,2.12,0,0,0,1,0,4.93,4.93,0,0,1,1.58,0,1,1,0,0,0,.87-.21c.08-.17.1-3,.1-3a7.35,7.35,0,0,0,1.62-.43c.87-.34,4.55-2.28,4.55-2.28a8.24,8.24,0,0,0,1.21,1A22.22,22.22,0,0,0,49,58.35c2.2.4,3.57-.44,3.73-1s.11-7.18,0-7.52.16-.33,4.25-2.77a11.63,11.63,0,0,0,5.34-7.39C62.34,39,60.76,39.07,57.69,38.43ZM34.23,60.33a3,3,0,0,1-1.54.05,3,3,0,0,0-1.5-.32c-.41.09-.66.38-.79.21a6.16,6.16,0,0,1-.18-1.91c.12-.12,1.25.07,2.37,0s1.66-.05,1.66.07S34.4,60.29,34.23,60.33Zm8.24-8a11.38,11.38,0,0,1-1.28,1.3,15.67,15.67,0,0,0-2.46-1.6c-.21.08-.5.38-.41.54s2,1.52,1.92,1.65-1.16.88-1.28.76a26,26,0,0,0-2.46-1.89c-.17,0-.66.38-.58.54s2.38,1.64,2.13,1.81-1.57.76-1.74.64-1.93-1.94-2.09-1.93-.62.25-.49.46,1.43,1.77,1.43,1.77a31.09,31.09,0,0,1-8.14-.1c-3.7-.68-6.31-4.77-7.5-9.12s-1.19-13.61.1-18.73,3.57-11.2,11.58-11.26c4,0,8.85.22,12.63,6.83S47.2,35.9,46.17,41.81,43.5,51.25,42.48,52.38Zm12.25-5.62c-3.51,1.81-3.93,2-4,2.31s.18,7.26-.11,7.31a26.08,26.08,0,0,1-5-.92c-1.42-.49-2-.94-2-1.06a21.17,21.17,0,0,0,2.83-4.51,11.74,11.74,0,0,0,.81-3s4.57.21,5-3S50.43,40.11,49.77,40a6.22,6.22,0,0,0-1.33-.16s1.16-10.31-2.33-16-7.21-8.7-14.76-8.39-11.59,4.28-13.44,12-1.36,12.13-1.36,12.13-3.69.15-3.57,4.72,4.93,3.66,4.93,3.66A7,7,0,0,0,19,51.86c1.22,1.86,1.76,2.56,1.76,2.56S15.89,56.28,15.85,56,17.1,51.46,16.93,51s-1-1.36-1.3-1.36-9.71.41-9.8,0,2.09-3.75,4.27-6.51,3.25-3.8,3.21-4.18-1.51-2.11-4.71-2.58S4.11,36,4.19,35.83a33,33,0,0,1,5.35-5.44,7.67,7.67,0,0,0,2.52-2.18A35.36,35.36,0,0,1,7.61,22c-1.77-3.31-1.87-5.51-1.75-5.63.3-.3,13.49.06,13.53-.19S17.52,5,17.9,5a45.86,45.86,0,0,1,9,3.71c2.63,1.68,2.76,2.3,3.46,2.26s4-3.19,8.43-4.88,5.92-1.79,5.92-1.62S43.28,11.77,43,13.1s-.44,2.74-.14,2.82a27.92,27.92,0,0,0,8.25-1c3.94-1.11,6.75-2.67,6.79-2.38a54.58,54.58,0,0,1-3.62,9.08c-1.19,1.84-1.68,3.42-1.43,3.54s1.66-.3,4.35-1.11,3-.94,3-.81A13.55,13.55,0,0,1,58,30.88a32.9,32.9,0,0,1-5.56,5.86,4.19,4.19,0,0,0,2,2.6c1.17.53,5.7,1.2,5.66,1.45A12.56,12.56,0,0,1,54.72,46.76Zm-6.23-5.31c.13-.13,2.37,0,2,1.94S47.7,46,47.65,45.74a22.4,22.4,0,0,1,.65-2.33C48.58,42.24,48.24,41.71,48.49,41.46ZM17.18,46.27c-.12,0-2.37-.27-2.38-1.89a3.75,3.75,0,0,1,1.68-3A27,27,0,0,1,17.18,46.27ZM32.46,25c7.35-.06,9.31,1.34,9.68,1.34s.44-2,.35-2.45-3.71-2.21-10.15-2.24-9.08,1.57-9.41,1.69c-1.2.42-.72,3-.35,3.24S25.11,25,32.46,25Zm-9.1-1c.25-.52,3.27-1.69,9.33-1.4s8.9,1.3,8.9,1.63.21.87,0,.87A29,29,0,0,0,32.41,24a43.18,43.18,0,0,0-8.87,1.27C23.2,25.17,23.28,24.13,23.36,24Zm19.59,9.39c.16-5.69-5-6.52-7.81-5.38s-4,5.51-1.68,8.69S42.79,39.05,42.95,33.36ZM34.2,36c-1.93-2.61-1-6.16,1.38-7.14s6.54-.26,6.41,4.42S36.13,38.63,34.2,36ZM30.94,32.8c.15-5.24-4.63-6-7.19-5s-3.71,5.08-1.54,8S30.79,38,30.94,32.8Zm-6.79-4.12c2.11-.86,6-.24,5.91,4.07s-5.4,4.91-7.18,2.51S22,29.58,24.15,28.68ZM27,32.9a1.07,1.07,0,0,0-1.53-1.05,1.12,1.12,0,0,0-.33,1.7A1.06,1.06,0,0,0,27,32.9Zm11.75.45a1.07,1.07,0,0,0-1.53-1.05,1.12,1.12,0,0,0-.33,1.7A1.06,1.06,0,0,0,38.79,33.34ZM28.18,39.53c0-.16,0-.76-.2-.81a9,9,0,0,1-3.05.31,5.43,5.43,0,0,1-3-1.29c-.12,0-.57.57-.46.73a5,5,0,0,0,3,1.44A6.57,6.57,0,0,0,28.18,39.53Zm14.5-1.39A8.94,8.94,0,0,1,40,39.61a5.43,5.43,0,0,1-3.27,0c-.12,0-.31.74-.14.85a5,5,0,0,0,3.28.19,6.57,6.57,0,0,0,3.32-1.81C43.13,38.66,42.89,38.11,42.68,38.14ZM32.13,46c-1.7,0-1.51-6.14-1.57-6.34s-.79,0-.78.1-.61,7.28,2.39,7.32,2.05-7.55,2.05-7.55a2.23,2.23,0,0,0-.79,0C33.27,39.67,33.84,46,32.13,46Zm-8.64.39c-.17,0-.91.59-1.15,1.13a5.31,5.31,0,0,0-.19,1.75,1.22,1.22,0,0,0,.71.24c.12,0,.08-.91.11-1.41s.78-.92.9-1.09S23.66,46.47,23.5,46.43Zm16.27-.54c-.17,0-.7.63-.7.63a3.33,3.33,0,0,1,1.46.94c.46.66.06,1.78.06,1.91s.5,0,.79,0,.28-1-.1-2A2.69,2.69,0,0,0,39.77,45.88Zm-8.48,4c-4.69.16-6.7-1.21-6.9-1.27s-.37.75-.28.92,2.25,1.31,7,1.4,8.08-1.6,8.12-1.77a1.86,1.86,0,0,0-.17-.83A27.71,27.71,0,0,1,31.29,49.85Z"/></g></svg>